<?xml version="1.0" encoding="UTF-8"?>
<svg width="28px" height="21px" viewBox="0 0 28 21" version="1.1" xmlns="http://www.w3.org/2000/svg" xmlns:xlink="http://www.w3.org/1999/xlink">
    <title>Logo</title>
    <g id="Symbols" stroke="none" stroke-width="1" fill="none" fill-rule="evenodd">
        <g id="Mobile-/-Organisms-/-Framework-/-Footer" transform="translate(-166.000000, -14.000000)" fill="#74956c" fill-rule="nonzero">
            <g id="Logo" transform="translate(156.000000, 0.000000)">
                <path d="M21.4406592,32.7601242 C20.3493888,30.8979111 19.7321097,27.7178268 19.7060782,24.4257584 C15.8331992,20.6388245 12.3197486,19.4095306 11.4784934,20.2507706 C10.6372535,21.0920258 11.9134452,24.7278748 15.8566596,28.6710739 C17.8803336,30.6973572 19.870156,32.0569077 21.4406592,32.7601242 M23.7404334,14.0078201 C26.1183249,14.0078201 27.5195319,18.3338776 27.7435309,22.904747 C31.0486152,19.8861389 35.0491034,17.6410751 36.8331763,19.4277573 C40.3153846,22.9099503 28.9858558,34.5754547 23.7404181,34.5754547 C18.4949805,34.5754547 7.18370884,22.8812866 10.6476676,19.4199448 C12.4343497,17.633255 16.434838,19.880928 19.7373359,22.8969269 C19.9639136,18.3260574 21.3625266,14 23.7404334,14 M21.9172828,31.0046997 C22.1794211,30.1182861 22.5596091,29.2711792 23.047631,28.4861526 C22.4154975,27.5047073 21.7047583,26.5762024 20.9223792,25.7097702 C20.9892508,27.5143433 21.3245856,29.298912 21.9172828,31.0046997 M26.6053626,24.0012207 C26.5610816,18.5500412 24.9411017,15.1772308 23.7404334,15.1772308 C22.5397651,15.1772308 20.9275901,18.5630646 20.8754966,24.0012207 C21.9240653,25.0565414 22.8823935,26.1978073 23.7404334,27.4131088 C24.5977713,26.1972733 25.5561606,25.0559387 26.6053626,24.0012207 M26.5636908,25.7097702 C25.7814795,26.5763397 25.0707175,27.5048294 24.4384391,28.4861679 C24.926171,29.2716827 25.3071677,30.1186371 25.5713813,31.0046997 C26.1618125,29.2984009 26.4962165,27.5140686 26.5636908,25.7097702 M31.6294104,28.6710739 C35.5752036,24.7278748 36.8644339,21.1180573 36.0075614,20.2507706 C35.1506812,19.3834763 31.6476447,20.6388245 27.7747733,24.4439926 C27.7513358,27.7256393 27.1314627,30.9057312 26.0401923,32.7783508 C27.6028754,32.0803452 29.6005179,30.7155914 31.6242072,28.6893005 M24.5191733,32.1558762 C24.4133612,31.2991028 24.1483619,30.4696579 23.7378241,29.7102585 C23.3262565,30.469223 23.0611884,31.2988739 22.9564673,32.1558762 C22.9122016,32.8929443 23.1492087,33.3070602 23.7378241,33.3070602 C24.3264319,33.3070602 24.5634391,32.8929443 24.5191733,32.1558762"/>
            </g>
        </g>
    </g>
</svg>